<svg xmlns="http://www.w3.org/2000/svg" x="0px" y="0px"
width="14" height="14"
viewBox="0 0 171 171"
style=" fill:#000000;"><g fill="none" fill-rule="nonzero" stroke="none" stroke-width="1" stroke-linecap="butt" stroke-linejoin="miter" stroke-miterlimit="10" stroke-dasharray="" stroke-dashoffset="0" font-family="none" font-weight="none" font-size="none" text-anchor="none" style="mix-blend-mode: normal"><path d="M0,171.98863v-171.98863h171.98863v171.98863z" fill="none"></path><g fill="#ffffff"><path d="M85.59741,22.87793c-31.64925,0 -61.33846,18.78762 -77.51221,49.02612c-0.54862,1.04025 -0.84888,2.18526 -0.84888,3.35376v0.7793c0,1.17562 0.29313,2.32742 0.84888,3.36767c3.56371,6.63177 7.81988,12.67055 12.56616,18.11865l-14.38916,14.38916c-1.86126,1.78709 -2.611,4.44076 -1.96007,6.93761c0.65093,2.49685 2.60081,4.44673 5.09766,5.09766c2.49685,0.65093 5.15052,-0.09881 6.93761,-1.96007l14.43091,-14.43091c5.01164,4.24778 10.40221,7.9164 16.08691,10.92407l-9.79687,19.23194c-1.24193,2.27647 -1.14911,5.0479 0.24236,7.23617c1.39147,2.18827 3.86188,3.44785 6.45019,3.28875c2.58832,-0.1591 4.88586,-1.71176 5.99885,-4.05397l10.2561,-20.12256c5.95096,1.96748 12.09974,3.26559 18.36914,3.82691v21.73681c-0.03634,2.56953 1.31367,4.95958 3.53309,6.25495c2.21942,1.29537 4.96439,1.29537 7.18381,0c2.21942,-1.29537 3.56943,-3.68542 3.53309,-6.25495v-21.73681c5.89692,-0.52657 11.69177,-1.69192 17.31153,-3.46509l10.07519,19.76074c1.7869,3.50848 6.07966,4.90409 9.58813,3.11719c3.50848,-1.7869 4.90409,-6.07966 3.11719,-9.58813l-9.54639,-18.74487c5.78829,-2.96916 11.3121,-6.56567 16.4209,-10.81274l13.83252,13.83252c1.78709,1.86124 4.44075,2.61095 6.93759,1.96002c2.49683,-0.65093 4.4467,-2.6008 5.09764,-5.09764c0.65093,-2.49683 -0.09879,-5.15049 -1.96002,-6.93759l-13.70727,-13.70727c5.03242,-5.66896 9.51516,-12.00244 13.24804,-18.98144c0.54863,-1.04025 0.83496,-2.19918 0.83496,-3.36768v-0.76538c0,-1.17562 -0.29313,-2.34134 -0.84888,-3.38159c-16.188,-30.1245 -45.85783,-48.8313 -77.42871,-48.8313z"></path></g></g></svg>