<svg xmlns="http://www.w3.org/2000/svg" x="0px" y="0px"
width="25" height="25"
viewBox="0 0 171 171"
style=" fill:#000000;"><g fill="none" fill-rule="nonzero" stroke="none" stroke-width="1" stroke-linecap="butt" stroke-linejoin="miter" stroke-miterlimit="10" stroke-dasharray="" stroke-dashoffset="0" font-family="none" font-weight="none" font-size="none" text-anchor="none" style="mix-blend-mode: normal"><path d="M0,171.98863v-171.98863h171.98863v171.98863z" fill="none"></path><g fill="#ffffff"><path d="M30.78,13.68c-9.40335,0 -17.1,7.69665 -17.1,17.1v109.44c0,9.40334 7.69665,17.1 17.1,17.1h109.44c9.40334,0 17.1,-7.69666 17.1,-17.1v-109.44c0,-9.40335 -7.69666,-17.1 -17.1,-17.1zM30.78,20.52h109.44c5.70622,0 10.26,4.55379 10.26,10.26v109.44c0,5.70622 -4.55378,10.26 -10.26,10.26h-109.44c-5.70621,0 -10.26,-4.55378 -10.26,-10.26v-109.44c0,-5.70621 4.55379,-10.26 10.26,-10.26zM57.13805,52.30195l-4.83609,4.83609l28.36195,28.36195l-28.36195,28.36195l4.83609,4.83609l28.36195,-28.36195l28.36195,28.36195l4.83609,-4.83609l-28.36195,-28.36195l28.36195,-28.36195l-4.83609,-4.83609l-28.36195,28.36195z"></path></g></g></svg>