<?xml version="1.0" encoding="UTF-8"?>
<svg xmlns="http://www.w3.org/2000/svg" xmlns:xlink="http://www.w3.org/1999/xlink" width="26pt" height="26pt" viewBox="0 0 25 25" version="1.1">
<defs>
<linearGradient id="linear0" gradientUnits="userSpaceOnUse" x1="14.33333" y1="84.237" x2="157.66667" y2="84.237" gradientTransform="matrix(0.145349,0,0,0.145349,0,0)">
<stop offset="0" style="stop-color:rgb(29.803922%,29.803922%,29.803922%);stop-opacity:1;"/>
<stop offset="1" style="stop-color:rgb(20.392157%,20.392157%,20.392157%);stop-opacity:1;"/>
</linearGradient>
<filter id="alpha" filterUnits="objectBoundingBox" x="0%" y="0%" width="100%" height="100%">
  <feColorMatrix type="matrix" in="SourceGraphic" values="0 0 0 0 1 0 0 0 0 1 0 0 0 0 1 0 0 0 1 0"/>
</filter>
<mask id="mask0">
  <g filter="url(#alpha)">
<rect x="0" y="0" width="25" height="25" style="fill:rgb(0%,0%,0%);fill-opacity:0.0509804;stroke:none;"/>
  </g>
</mask>
<clipPath id="clip1">
  <rect width="25" height="25"/>
</clipPath>
<g id="surface2055652" clip-path="url(#clip1)">
<path style=" stroke:none;fill-rule:nonzero;fill:rgb(0%,0%,0%);fill-opacity:1;" d="M 15.628906 21.871094 L 15.625 18.851562 C 15.625 18.363281 15.511719 17.886719 15.289062 17.453125 C 18.230469 16.863281 19.660156 15.125 19.660156 12.152344 C 19.660156 10.980469 19.3125 9.941406 18.628906 9.070312 C 18.679688 8.90625 18.71875 8.734375 18.742188 8.558594 C 18.839844 7.847656 18.730469 7.378906 18.644531 7.003906 L 18.628906 6.945312 C 18.53125 6.53125 18.417969 6.234375 18.410156 6.222656 L 18.355469 6.074219 L 18.296875 5.925781 L 18.136719 5.910156 L 17.980469 5.894531 C 17.980469 5.894531 17.878906 5.882812 17.71875 5.882812 C 17.5 5.882812 17.179688 5.90625 16.871094 6.007812 L 16.769531 6.042969 C 16.386719 6.171875 16.019531 6.296875 15.511719 6.601562 C 15.363281 6.6875 15.199219 6.789062 15.023438 6.902344 C 14.238281 6.707031 13.386719 6.609375 12.5 6.609375 C 11.601562 6.609375 10.746094 6.710938 9.953125 6.90625 C 9.777344 6.792969 9.613281 6.691406 9.464844 6.601562 C 8.953125 6.296875 8.589844 6.171875 8.203125 6.042969 L 8.101562 6.007812 C 7.796875 5.90625 7.472656 5.882812 7.253906 5.882812 C 7.097656 5.882812 6.996094 5.894531 6.996094 5.894531 L 6.835938 5.910156 L 6.679688 5.925781 L 6.5625 6.222656 C 6.558594 6.234375 6.441406 6.53125 6.34375 6.945312 L 6.332031 7.003906 C 6.242188 7.378906 6.132812 7.847656 6.230469 8.558594 C 6.253906 8.738281 6.296875 8.914062 6.351562 9.085938 C 5.679688 9.953125 5.34375 10.984375 5.34375 12.152344 C 5.34375 15.121094 6.773438 16.855469 9.714844 17.449219 C 9.613281 17.652344 9.535156 17.867188 9.480469 18.085938 C 9.378906 18.121094 9.285156 18.144531 9.199219 18.160156 C 9.074219 18.175781 8.945312 18.1875 8.816406 18.1875 C 8.457031 18.1875 8.175781 18.117188 8.066406 18.050781 C 7.90625 17.957031 7.613281 17.671875 7.332031 17.261719 C 7.089844 16.910156 6.714844 16.449219 6.292969 16.257812 C 5.929688 16.089844 5.546875 15.996094 5.238281 15.996094 C 5.164062 15.996094 5.097656 16 5.042969 16.011719 C 4.773438 16.054688 4.546875 16.203125 4.425781 16.417969 C 4.320312 16.601562 4.300781 16.820312 4.378906 17.011719 C 4.492188 17.296875 4.820312 17.523438 5.078125 17.664062 C 5.203125 17.734375 5.476562 17.988281 5.636719 18.242188 C 5.753906 18.433594 5.808594 18.570312 5.886719 18.757812 C 5.933594 18.871094 5.980469 18.992188 6.050781 19.140625 C 6.292969 19.671875 7.058594 20.144531 7.144531 20.195312 C 7.566406 20.445312 8.269531 20.527344 8.789062 20.550781 L 8.855469 20.550781 C 8.980469 20.550781 9.152344 20.539062 9.375 20.515625 L 9.375 21.875 C 9.378906 22.152344 9.097656 22.214844 8.726562 22.207031 L 9.011719 22.304688 C 10.101562 22.695312 11.273438 22.917969 12.5 22.917969 C 13.726562 22.917969 14.898438 22.695312 15.992188 22.304688 L 16.355469 22.167969 C 15.988281 22.15625 15.632812 22.09375 15.628906 21.871094 Z M 15.628906 21.871094 "/>
</g>
<mask id="mask1">
  <g filter="url(#alpha)">
<rect x="0" y="0" width="25" height="25" style="fill:rgb(0%,0%,0%);fill-opacity:0.0705882;stroke:none;"/>
  </g>
</mask>
<clipPath id="clip2">
  <rect width="25" height="25"/>
</clipPath>
<g id="surface2055655" clip-path="url(#clip2)">
<path style=" stroke:none;fill-rule:nonzero;fill:rgb(0%,0%,0%);fill-opacity:1;" d="M 16.03125 22.289062 C 15.820312 22.316406 15.363281 22.234375 15.363281 21.875 L 15.363281 18.851562 C 15.363281 18.285156 15.195312 17.734375 14.878906 17.261719 C 17.957031 16.765625 19.398438 15.132812 19.398438 12.152344 C 19.398438 10.988281 19.039062 9.96875 18.335938 9.121094 C 18.40625 8.929688 18.457031 8.730469 18.484375 8.523438 C 18.578125 7.859375 18.476562 7.4375 18.390625 7.066406 L 18.375 7.003906 C 18.28125 6.609375 18.171875 6.328125 18.167969 6.316406 L 18.109375 6.171875 L 17.953125 6.152344 C 17.953125 6.152344 17.859375 6.144531 17.71875 6.144531 C 17.519531 6.144531 17.226562 6.164062 16.957031 6.253906 L 16.855469 6.289062 C 16.480469 6.414062 16.128906 6.535156 15.644531 6.824219 C 15.472656 6.925781 15.277344 7.046875 15.070312 7.183594 C 14.273438 6.976562 13.410156 6.871094 12.5 6.871094 C 11.582031 6.871094 10.710938 6.976562 9.90625 7.1875 C 9.695312 7.050781 9.503906 6.925781 9.328125 6.824219 C 8.84375 6.535156 8.492188 6.414062 8.121094 6.289062 L 8.019531 6.253906 C 7.746094 6.164062 7.453125 6.144531 7.253906 6.144531 C 7.113281 6.144531 7.019531 6.152344 7.019531 6.152344 L 6.863281 6.171875 L 6.804688 6.316406 C 6.800781 6.328125 6.691406 6.609375 6.597656 7.003906 L 6.582031 7.066406 C 6.496094 7.4375 6.394531 7.859375 6.488281 8.523438 C 6.515625 8.734375 6.570312 8.941406 6.644531 9.136719 C 5.953125 9.980469 5.601562 10.992188 5.601562 12.152344 C 5.601562 15.125 7.042969 16.757812 10.125 17.261719 C 9.921875 17.566406 9.777344 17.914062 9.703125 18.285156 C 9.53125 18.351562 9.375 18.394531 9.238281 18.417969 C 9.101562 18.4375 8.957031 18.449219 8.816406 18.449219 C 8.457031 18.449219 8.109375 18.378906 7.933594 18.277344 C 7.707031 18.140625 7.382812 17.800781 7.117188 17.410156 C 6.933594 17.144531 6.570312 16.671875 6.183594 16.496094 C 5.855469 16.34375 5.507812 16.257812 5.234375 16.257812 C 5.179688 16.257812 5.125 16.261719 5.082031 16.269531 C 4.890625 16.300781 4.734375 16.398438 4.648438 16.546875 C 4.582031 16.664062 4.570312 16.796875 4.617188 16.914062 C 4.710938 17.148438 5.058594 17.359375 5.203125 17.4375 C 5.375 17.535156 5.679688 17.824219 5.855469 18.105469 C 5.984375 18.316406 6.046875 18.46875 6.125 18.660156 C 6.171875 18.769531 6.21875 18.890625 6.285156 19.03125 C 6.457031 19.40625 6.988281 19.800781 7.277344 19.972656 C 7.667969 20.207031 8.398438 20.273438 8.796875 20.289062 L 8.855469 20.292969 C 9.011719 20.292969 9.273438 20.269531 9.636719 20.222656 L 9.636719 21.875 C 9.636719 22.28125 9.117188 22.296875 8.992188 22.296875 C 8.976562 22.296875 9.253906 22.394531 9.253906 22.394531 C 10.277344 22.730469 11.367188 22.917969 12.5 22.917969 C 13.632812 22.917969 14.722656 22.730469 15.746094 22.394531 C 15.746094 22.394531 16.046875 22.289062 16.03125 22.289062 Z M 16.03125 22.289062 "/>
</g>
</defs>
<g id="surface2055647">
<path style=" stroke:none;fill-rule:nonzero;fill:url(#linear0);" d="M 12.5 2.082031 C 6.746094 2.082031 2.082031 6.746094 2.082031 12.5 C 2.082031 17.128906 5.105469 21.046875 9.28125 22.402344 L 15.71875 22.402344 C 19.894531 21.046875 22.917969 17.128906 22.917969 12.5 C 22.917969 6.746094 18.253906 2.082031 12.5 2.082031 Z M 12.5 2.082031 "/>
<use xlink:href="#surface2055652" mask="url(#mask0)"/>
<use xlink:href="#surface2055655" mask="url(#mask1)"/>
<path style=" stroke:none;fill-rule:nonzero;fill:rgb(100%,100%,100%);fill-opacity:1;" d="M 19.136719 12.152344 C 19.136719 10.949219 18.730469 9.953125 18.035156 9.167969 C 18.109375 9 18.1875 8.773438 18.226562 8.488281 C 18.316406 7.835938 18.210938 7.445312 18.121094 7.0625 C 18.03125 6.683594 17.925781 6.414062 17.925781 6.414062 C 17.925781 6.414062 17.445312 6.363281 17.039062 6.503906 C 16.632812 6.640625 16.285156 6.746094 15.777344 7.046875 C 15.542969 7.1875 15.304688 7.34375 15.117188 7.46875 C 14.3125 7.246094 13.429688 7.128906 12.5 7.128906 C 11.5625 7.128906 10.671875 7.246094 9.859375 7.46875 C 9.671875 7.34375 9.433594 7.1875 9.195312 7.046875 C 8.691406 6.746094 8.339844 6.640625 7.933594 6.503906 C 7.527344 6.363281 7.046875 6.414062 7.046875 6.414062 C 7.046875 6.414062 6.941406 6.679688 6.851562 7.0625 C 6.761719 7.445312 6.65625 7.835938 6.746094 8.488281 C 6.785156 8.78125 6.867188 9.011719 6.945312 9.183594 C 6.261719 9.960938 5.863281 10.949219 5.863281 12.152344 C 5.863281 15.269531 7.546875 16.691406 10.613281 17.066406 C 10.253906 17.445312 10.015625 17.929688 9.933594 18.46875 C 9.734375 18.558594 9.5 18.640625 9.277344 18.671875 C 8.703125 18.761719 8.09375 18.671875 7.800781 18.5 C 7.507812 18.328125 7.160156 17.9375 6.902344 17.554688 C 6.683594 17.234375 6.363281 16.863281 6.078125 16.730469 C 5.699219 16.558594 5.328125 16.492188 5.121094 16.523438 C 4.917969 16.558594 4.820312 16.710938 4.863281 16.816406 C 4.90625 16.925781 5.113281 17.089844 5.328125 17.207031 C 5.546875 17.328125 5.882812 17.652344 6.078125 17.96875 C 6.296875 18.320312 6.339844 18.523438 6.523438 18.921875 C 6.652344 19.207031 7.097656 19.558594 7.410156 19.746094 C 7.683594 19.910156 8.226562 20.003906 8.8125 20.03125 C 9.015625 20.039062 9.492188 19.980469 9.898438 19.921875 L 9.898438 21.875 C 9.898438 22.207031 9.59375 22.460938 9.277344 22.402344 C 10.289062 22.742188 11.371094 22.917969 12.5 22.917969 C 13.628906 22.917969 14.710938 22.742188 15.722656 22.402344 C 15.410156 22.460938 15.105469 22.207031 15.105469 21.875 L 15.105469 18.851562 C 15.105469 18.160156 14.828125 17.535156 14.390625 17.070312 C 17.433594 16.703125 19.136719 15.316406 19.136719 12.152344 Z M 5.855469 17.046875 C 5.773438 17.003906 5.730469 16.929688 5.757812 16.875 C 5.785156 16.820312 5.871094 16.8125 5.953125 16.851562 C 6.03125 16.894531 6.074219 16.96875 6.046875 17.023438 C 6.019531 17.078125 5.933594 17.085938 5.855469 17.046875 Z M 6.484375 17.4375 C 6.441406 17.484375 6.351562 17.46875 6.28125 17.40625 C 6.210938 17.34375 6.191406 17.253906 6.230469 17.207031 C 6.273438 17.160156 6.363281 17.175781 6.433594 17.238281 C 6.503906 17.304688 6.527344 17.394531 6.484375 17.4375 Z M 6.878906 18.089844 C 6.824219 18.128906 6.734375 18.09375 6.675781 18.011719 C 6.617188 17.929688 6.613281 17.835938 6.667969 17.796875 C 6.722656 17.757812 6.8125 17.792969 6.871094 17.875 C 6.925781 17.957031 6.929688 18.050781 6.878906 18.089844 Z M 7.441406 18.578125 C 7.40625 18.636719 7.304688 18.640625 7.214844 18.585938 C 7.125 18.53125 7.082031 18.441406 7.117188 18.382812 C 7.152344 18.324219 7.253906 18.320312 7.34375 18.375 C 7.433594 18.429688 7.476562 18.519531 7.441406 18.578125 Z M 7.976562 19.058594 C 7.863281 19.046875 7.78125 18.976562 7.792969 18.90625 C 7.800781 18.832031 7.898438 18.785156 8.007812 18.800781 C 8.117188 18.8125 8.199219 18.882812 8.191406 18.953125 C 8.183594 19.027344 8.085938 19.074219 7.976562 19.058594 Z M 8.835938 19.183594 C 8.714844 19.175781 8.625 19.109375 8.628906 19.035156 C 8.632812 18.957031 8.734375 18.902344 8.851562 18.90625 C 8.96875 18.914062 9.0625 18.980469 9.058594 19.058594 C 9.050781 19.132812 8.953125 19.191406 8.835938 19.183594 Z M 9.644531 19.101562 C 9.519531 19.101562 9.417969 19.035156 9.417969 18.957031 C 9.417969 18.875 9.519531 18.808594 9.644531 18.808594 C 9.773438 18.808594 9.875 18.875 9.875 18.957031 C 9.875 19.035156 9.773438 19.101562 9.644531 19.101562 Z M 9.644531 19.101562 "/>
</g>
</svg>
