<svg xmlns="http://www.w3.org/2000/svg" x="0px" y="0px"
            width="25" height="25"
            viewBox="0 0 172 172"
            style=" fill:#000000;"><g fill="none" fill-rule="nonzero" stroke="none" stroke-width="1" stroke-linecap="butt" stroke-linejoin="miter" stroke-miterlimit="10" stroke-dasharray="" stroke-dashoffset="0" font-family="none" font-weight="none" font-size="none" text-anchor="none" style="mix-blend-mode: normal"><path d="M0,172v-172h172v172z" fill="none"></path><g fill="#ffffff"><path d="M43,10.75l43,37.625l43,-37.625zM155.24511,25.19531l-10.12011,7.05469c0.37793,0 0.67188,0.12598 1.00781,0.20996l-60.13281,41.61426l-60.13281,-41.61426c0.33594,-0.08398 0.62989,-0.20996 1.00781,-0.20996l-10.24609,-6.9707c-3.56933,2.98144 -5.87891,7.34862 -5.87891,12.3457v86c0,8.90234 7.22266,16.125 16.125,16.125h118.25c8.90234,0 16.125,-7.22266 16.125,-16.125v-86c0,-5.03906 -2.35156,-9.49023 -6.00489,-12.42969zM32.25,62.06446l53.75,37.20507l53.75,-37.20507v66.93554h-107.5z"></path></g></g></svg>
            