<svg xmlns="http://www.w3.org/2000/svg" x="0px" y="0px"
width="24" height="24"
viewBox="0 0 171 171"
style=" fill:#000000;"><g fill="none" fill-rule="nonzero" stroke="none" stroke-width="1" stroke-linecap="butt" stroke-linejoin="miter" stroke-miterlimit="10" stroke-dasharray="" stroke-dashoffset="0" font-family="none" font-weight="none" font-size="none" text-anchor="none" style="mix-blend-mode: normal"><path d="M0,171.98863v-171.98863h171.98863v171.98863z" fill="none"></path><g fill="#ffffff"><path d="M17.1,39.9c-2.05562,-0.02907 -3.96766,1.05094 -5.00396,2.82648c-1.0363,1.77554 -1.0363,3.97151 0,5.74705c1.0363,1.77554 2.94834,2.85555 5.00396,2.82648h136.8c2.05562,0.02907 3.96766,-1.05094 5.00396,-2.82648c1.0363,-1.77554 1.0363,-3.97151 0,-5.74705c-1.0363,-1.77554 -2.94834,-2.85555 -5.00396,-2.82648zM17.1,79.8c-2.05562,-0.02907 -3.96766,1.05094 -5.00396,2.82648c-1.0363,1.77554 -1.0363,3.97151 0,5.74705c1.0363,1.77554 2.94834,2.85555 5.00396,2.82648h136.8c2.05562,0.02907 3.96766,-1.05094 5.00396,-2.82648c1.0363,-1.77554 1.0363,-3.97151 0,-5.74705c-1.0363,-1.77554 -2.94834,-2.85555 -5.00396,-2.82648zM17.1,119.7c-2.05562,-0.02907 -3.96766,1.05094 -5.00396,2.82648c-1.0363,1.77554 -1.0363,3.97151 0,5.74705c1.0363,1.77554 2.94834,2.85555 5.00396,2.82648h136.8c2.05562,0.02907 3.96766,-1.05094 5.00396,-2.82648c1.0363,-1.77554 1.0363,-3.97151 0,-5.74705c-1.0363,-1.77554 -2.94834,-2.85555 -5.00396,-2.82648z"></path></g></g></svg>