<svg xmlns="http://www.w3.org/2000/svg" x="0px" y="0px"
width="24" height="24"
viewBox="0 0 171 171"
style=" fill:#000000;"><g fill="none" fill-rule="nonzero" stroke="none" stroke-width="1" stroke-linecap="butt" stroke-linejoin="miter" stroke-miterlimit="10" stroke-dasharray="" stroke-dashoffset="0" font-family="none" font-weight="none" font-size="none" text-anchor="none" style="mix-blend-mode: normal"><path d="M0,171.98863v-171.98863h171.98863v171.98863z" fill="none"></path><g fill="#ffffff"><path d="M140.22,13.68h-109.44c-9.4392,0 -17.1,7.6608 -17.1,17.1v109.44c0,9.4392 7.6608,17.1 17.1,17.1h109.44c9.4392,0 17.1,-7.6608 17.1,-17.1v-109.44c0,-9.4392 -7.6608,-17.1 -17.1,-17.1zM58.14,68.4v64.98h-20.52v-64.98zM37.62,49.4874c0,-4.788 4.104,-8.4474 10.26,-8.4474c6.156,0 10.0206,3.6594 10.26,8.4474c0,4.788 -3.8304,8.6526 -10.26,8.6526c-6.156,0 -10.26,-3.8646 -10.26,-8.6526zM133.38,133.38h-20.52c0,0 0,-31.6692 0,-34.2c0,-6.84 -3.42,-13.68 -11.97,-13.8168h-0.2736c-8.2764,0 -11.6964,7.0452 -11.6964,13.8168c0,3.1122 0,34.2 0,34.2h-20.52v-64.98h20.52v8.7552c0,0 6.6006,-8.7552 19.8702,-8.7552c13.5774,0 24.5898,9.3366 24.5898,28.2492z"></path></g></g></svg>