<?xml version="1.0" encoding="UTF-8"?>
<svg xmlns="http://www.w3.org/2000/svg" xmlns:xlink="http://www.w3.org/1999/xlink" width="18pt" height="18pt" viewBox="0 0 18 18" version="1.1">
<g id="surface2082437">
<rect x="0" y="0" width="18" height="18" style="fill:rgb(100%,100%,100%);fill-opacity:1;stroke:none;"/>
<path style=" stroke:none;fill-rule:nonzero;fill:rgb(0%,0%,0%);fill-opacity:1;" d="M 5.398438 15 L 2.398438 15 L 2.398438 6 L 5.398438 6 Z M 3.902344 4.800781 C 3.070312 4.800781 2.398438 4.128906 2.398438 3.300781 C 2.398438 2.472656 3.070312 1.800781 3.902344 1.800781 C 4.726562 1.800781 5.398438 2.472656 5.398438 3.300781 C 5.398438 4.128906 4.726562 4.800781 3.902344 4.800781 Z M 16.199219 15 L 13.316406 15 L 13.316406 10.621094 C 13.316406 9.574219 13.296875 8.230469 11.816406 8.230469 C 10.316406 8.230469 10.082031 9.371094 10.082031 10.542969 L 10.082031 15 L 7.199219 15 L 7.199219 5.992188 L 9.96875 5.992188 L 9.96875 7.222656 L 10.007812 7.222656 C 10.394531 6.515625 11.335938 5.769531 12.738281 5.769531 C 15.660156 5.769531 16.199219 7.636719 16.199219 10.058594 Z M 16.199219 15 "/>
</g>
</svg>
