<svg xmlns="http://www.w3.org/2000/svg" x="0px" y="0px"
width="14" height="14"
viewBox="0 0 171 171"
style=" fill:#000000;"><g fill="none" fill-rule="nonzero" stroke="none" stroke-width="1" stroke-linecap="butt" stroke-linejoin="miter" stroke-miterlimit="10" stroke-dasharray="" stroke-dashoffset="0" font-family="none" font-weight="none" font-size="none" text-anchor="none" style="mix-blend-mode: normal"><path d="M0,171.98863v-171.98863h171.98863v171.98863z" fill="none"></path><g fill="#ffffff"><path d="M85.5,28.5c-57,0 -78.375,57 -78.375,57c0,0 21.375,57 78.375,57c57,0 78.375,-57 78.375,-57c0,0 -21.375,-57 -78.375,-57zM85.5,49.875c19.67212,0 35.625,15.95288 35.625,35.625c0,19.67212 -15.95288,35.625 -35.625,35.625c-19.67212,0 -35.625,-15.95288 -35.625,-35.625c0,-19.67212 15.95288,-35.625 35.625,-35.625zM85.5,64.125c-11.80509,0 -21.375,9.56991 -21.375,21.375c0,11.80509 9.56991,21.375 21.375,21.375c11.80509,0 21.375,-9.56991 21.375,-21.375c0,-11.80509 -9.56991,-21.375 -21.375,-21.375z"></path></g></g></svg>