<svg xmlns="http://www.w3.org/2000/svg" x="0px" y="0px"
width="48" height="48"
viewBox="0 0 171 171"
style=" fill:#000000;"><g fill="none" fill-rule="nonzero" stroke="none" stroke-width="1" stroke-linecap="butt" stroke-linejoin="miter" stroke-miterlimit="10" stroke-dasharray="" stroke-dashoffset="0" font-family="none" font-weight="none" font-size="none" text-anchor="none" style="mix-blend-mode: normal"><path d="M0,171.98863v-171.98863h171.98863v171.98863z" fill="none"></path><g><path d="M151.7625,32.41875l-12.825,-12.825c-2.1375,-2.1375 -5.34375,-2.1375 -7.125,0l-6.05625,6.05625l20.30625,20.30625l6.05625,-6.05625c1.425,-2.49375 1.425,-5.7 -0.35625,-7.48125" fill="#e57373"></path><path d="M24.58125,126.1125l90.84375,-90.4875l20.30625,20.30625l-90.84375,90.4875z" fill="#3498db"></path><rect x="-20.13957" y="32.44151" transform="rotate(-45.001) scale(3.5625,3.5625)" width="36.7" height="3" fill="#3498db"></rect><path d="M145.70625,45.6l-10.33125,9.975l-19.95,-19.95l9.975,-9.975z" fill="#95a5a6"></path><path d="M24.58125,126.1125l-6.76875,27.075l27.075,-6.76875z" fill="#ffc107"></path><path d="M21.375,139.65l-3.5625,13.5375l13.5375,-3.5625z" fill="#37474f"></path><g><path d="M23.46263,43.47319c25.74619,24.13238 47.09269,43.81875 73.12744,68.24325l5.03737,-5.03738l22.14094,22.14094c1.00819,-0.40256 2.06625,-1.00819 3.0495,-1.99144c0.30281,-0.30281 3.14925,-3.249 2.51869,-7.55606c-5.89594,-7.55606 -11.73844,-15.11569 -17.63437,-22.67175c-24.52425,-26.14163 -44.27119,-47.55581 -68.5425,-73.44806c-1.52475,-1.62806 -3.42712,-2.9925 -5.59312,-3.51975c-4.94475,-1.20412 -10.29919,0.18525 -14.02913,3.91519c-0.855,0.855 -1.61381,1.81331 -2.19094,2.84644c-1.71,2.82863 -2.41537,6.13106 -2.04844,9.36581c0.33844,2.97112 1.98075,5.66794 4.16456,7.71281z" fill="#edb656"></path><path d="M129.28312,119.32594c10.42744,0.87281 15.20119,4.46025 17.63438,7.55606c3.17419,4.03987 3.078,8.14744 7.55606,12.597c3.29531,3.27038 7.10006,4.77375 9.66506,5.52187c-12.67894,9.80756 -28.5285,9.9465 -37.37419,2.03775c-6.67256,-5.96362 -7.43137,-14.78794 -7.55606,-17.63438" fill="#37474f"></path><path d="M23.16338,43.19175c25.88156,24.26063 47.29219,44.00756 73.42669,68.52469l5.03737,-5.03738l-80.28094,-80.2845c-2.01994,3.34519 -2.63981,7.353 -1.7385,11.12569c0.52369,2.19806 1.90594,4.12537 3.55538,5.6715z" fill="#d19b43"></path><path d="M96.59006,111.71288c7.55606,5.89594 15.11569,11.73844 22.67175,17.63438c0.30281,0.04988 2.26575,0.30281 4.51012,-0.53081l-22.14094,-22.14094z" fill="#95a5a6"></path><path d="M101.62744,106.6755l22.14094,22.14094c1.00819,-0.40256 2.06625,-1.00819 3.0495,-1.99144c0.30281,-0.30281 3.14925,-3.249 2.51869,-7.55606c-5.89594,-7.55606 -11.73844,-15.11569 -17.63437,-22.67175z" fill="#95a5a6"></path></g></g></g></svg>