<svg xmlns="http://www.w3.org/2000/svg" x="0px" y="0px"
width="48" height="48"
viewBox="0 0 171 171"
style=" fill:#000000;"><g transform="translate(4.98767,4.98767) scale(0.942,0.942)"><g fill="none" fill-rule="nonzero" stroke="none" stroke-width="none" stroke-linecap="butt" stroke-linejoin="none" stroke-miterlimit="10" stroke-dasharray="" stroke-dashoffset="0" font-family="none" font-weight="none" font-size="none" text-anchor="none" style="mix-blend-mode: normal"><g stroke="#cccccc" stroke-width="10" stroke-linejoin="round"><path d="M128.25,130.03125h-114v-112.21875l14.25,14.25l14.25,-14.25l14.25,14.25l14.25,-14.25l14.25,14.25l14.25,-14.25l14.25,14.25l14.25,-14.25z" fill="#90caf9"></path><path d="M35.625,49.875h42.75v7.125h-42.75zM89.0625,49.875h17.8125v7.125h-17.8125zM35.625,64.125h21.375v7.125h-21.375zM67.6875,64.125h39.1875v7.125h-39.1875zM35.625,78.375h14.25v7.125h-14.25zM60.5625,78.375h21.375v7.125h-21.375zM92.625,78.375h14.25v7.125h-14.25z" fill="#1976d2"></path><path d="M156.75,130.09181c-0.04275,12.78581 -8.84925,23.12775 -19.67212,23.09569c-5.06231,-0.01425 -103.3125,0 -103.3125,0l0.15675,-46.3125h103.3125c10.81931,0.03206 19.55813,10.431 19.51538,23.21681z" fill="#bbdefb"></path><path d="M35.625,92.625h35.625v7.125h-35.625zM78.375,92.625h28.5v7.125h-28.5z" fill="#1976d2"></path><path d="M53.4375,130.09181c-0.04275,12.78581 -8.85281,23.12775 -19.67213,23.09569c-10.81931,-0.03206 -19.55812,-10.42744 -19.51537,-23.21681c0.04275,-12.78581 8.84925,-23.12775 19.67213,-23.09569c10.81931,0.03206 19.55812,10.431 19.51537,23.21681z" fill="#42a5f5"></path><path d="M33.89006,117.5625c4.20375,0.01069 8.88488,5.358 8.85994,12.49369c-0.0285,7.12856 -4.74169,12.44381 -8.93831,12.44381c-0.00356,0 -0.00712,0 -0.01425,0c-2.508,-0.00712 -4.45312,-1.74919 -5.39362,-2.78587c-2.21588,-2.45812 -3.48056,-5.99569 -3.46631,-9.70781c0.0285,-7.12856 4.73813,-12.44381 8.93831,-12.44381c0.00356,0 0.00712,0 0.01425,0z" fill="#1976d2"></path></g><path d="M0,171.98863v-171.98863h171.98863v171.98863z" fill="none" stroke="none" stroke-width="1" stroke-linejoin="miter"></path><g stroke="none" stroke-width="1" stroke-linejoin="miter"><path d="M128.25,17.8125l-14.25,14.25l-14.25,-14.25l-14.25,14.25l-14.25,-14.25l-14.25,14.25l-14.25,-14.25l-14.25,14.25l-14.25,-14.25v112.21875h114z" fill="#90caf9"></path><path d="M35.625,49.875h42.75v7.125h-42.75zM89.0625,49.875h17.8125v7.125h-17.8125zM35.625,64.125h21.375v7.125h-21.375zM67.6875,64.125h39.1875v7.125h-39.1875zM35.625,78.375h14.25v7.125h-14.25zM60.5625,78.375h21.375v7.125h-21.375zM92.625,78.375h14.25v7.125h-14.25z" fill="#1976d2"></path><path d="M137.23463,106.875h-103.3125l-0.15675,46.3125c0,0 98.25019,-0.01425 103.3125,0c10.82287,0.03206 19.62937,-10.30988 19.67212,-23.09569c0.04275,-12.78581 -8.69606,-23.18475 -19.51538,-23.21681z" fill="#bbdefb"></path><path d="M35.625,92.625h35.625v7.125h-35.625zM78.375,92.625h28.5v7.125h-28.5z" fill="#1976d2"></path><path d="M33.92213,106.875c-10.82287,-0.03206 -19.62938,10.30987 -19.67213,23.09569c-0.04275,12.78938 8.69606,23.18475 19.51537,23.21681c10.81931,0.03206 19.62938,-10.30988 19.67213,-23.09569c0.04275,-12.78581 -8.69606,-23.18475 -19.51537,-23.21681z" fill="#42a5f5"></path><path d="M33.87581,117.5625c-4.20019,0 -8.90981,5.31525 -8.93831,12.44381c-0.01425,3.71213 1.25044,7.24969 3.46631,9.70781c0.9405,1.03669 2.88562,2.77875 5.39363,2.78587c0.00713,0 0.01069,0 0.01425,0c4.19663,0 8.90981,-5.31525 8.93831,-12.44381c0.02494,-7.13569 -4.65619,-12.483 -8.85994,-12.49369c-0.00713,0 -0.01069,0 -0.01425,0z" fill="#1976d2"></path></g><path d="" fill="none" stroke="none" stroke-width="1" stroke-linejoin="miter"></path></g></g></svg>