<svg xmlns="http://www.w3.org/2000/svg" x="0px" y="0px"
width="48" height="48"
viewBox="0 0 171 171"
style=" fill:#000000;"><g transform="translate(4.98767,4.98767) scale(0.942,0.942)"><g fill="none" fill-rule="nonzero" stroke="none" stroke-width="none" stroke-linecap="butt" stroke-linejoin="none" stroke-miterlimit="10" stroke-dasharray="" stroke-dashoffset="0" font-family="none" font-weight="none" font-size="none" text-anchor="none" style="mix-blend-mode: normal"><g stroke="#cccccc" stroke-width="10" stroke-linejoin="round"><path d="M10.6875,39.1875h149.625v103.3125h-149.625z" fill="#7e57c2"></path><path d="M103.3125,131.8125c0,9.83757 -7.97493,17.8125 -17.8125,17.8125c-9.83757,0 -17.8125,-7.97493 -17.8125,-17.8125c0,-9.83757 7.97493,-17.8125 17.8125,-17.8125c9.83757,0 17.8125,7.97493 17.8125,17.8125z" fill="#7e57c2"></path><path d="M96.1875,131.8125c0,5.90254 -4.78496,10.6875 -10.6875,10.6875c-5.90254,0 -10.6875,-4.78496 -10.6875,-10.6875c0,-5.90254 4.78496,-10.6875 10.6875,-10.6875c5.90254,0 10.6875,4.78496 10.6875,10.6875z" fill="#5e35b1"></path><path d="M149.625,46.3125v85.5h-128.25v-85.5l7.125,-17.8125l53.4375,10.6875h7.125l53.4375,-10.6875z" fill="#d7ccc8"></path><path d="M28.5,121.125h53.4375v10.6875h7.125v-10.6875h53.4375l7.125,10.6875h-128.25z" fill="#bcaaa4"></path><path d="M142.5,121.125c0,0 -53.4375,0 -53.4375,10.6875c0,0 0,-81.9375 0,-92.625c0,-10.6875 53.4375,-10.6875 53.4375,-10.6875zM28.5,28.5c0,0 53.4375,0 53.4375,10.6875c0,10.6875 0,92.625 0,92.625c0,-10.6875 -53.4375,-10.6875 -53.4375,-10.6875z" fill="#efebe9"></path><path d="M61.9875,22.44375l0.7125,2.85c0.35625,2.49375 2.49375,4.275 4.63125,4.63125l2.85,0.7125c1.425,0.35625 1.425,2.49375 0,2.49375l-2.85,0.7125c-2.49375,0.35625 -4.275,2.49375 -4.63125,4.63125l-0.7125,2.85c-0.35625,1.425 -2.49375,1.425 -2.49375,0l-0.7125,-2.85c-0.35625,-2.49375 -2.49375,-4.275 -4.63125,-4.63125l-2.85,-0.7125c-1.425,-0.35625 -1.425,-2.49375 0,-2.49375l2.85,-0.7125c2.49375,-0.35625 4.275,-2.49375 4.63125,-4.63125l0.7125,-2.85c0,-1.425 2.1375,-1.425 2.49375,0z" fill="#ff8a65"></path><path d="M121.8375,64.8375l0.35625,2.1375c0.35625,1.425 1.425,2.85 3.20625,3.20625l2.1375,0.35625c1.06875,0.35625 1.06875,1.425 0,1.78125l-2.1375,0.35625c-1.425,0.35625 -2.85,1.425 -3.20625,3.20625l-0.35625,2.1375c-0.35625,1.06875 -1.425,1.06875 -1.78125,0l-0.35625,-2.1375c-0.35625,-1.425 -1.425,-2.85 -3.20625,-3.20625l-2.1375,-0.35625c-1.06875,-0.35625 -1.06875,-1.425 0,-1.78125l2.1375,-0.35625c1.425,-0.35625 2.85,-1.425 3.20625,-3.20625l0.35625,-2.1375c0.35625,-1.06875 1.78125,-1.06875 1.78125,0z" fill="#ff7043"></path><path d="M68.4,89.775l0.35625,2.1375c0.35625,1.425 1.425,2.85 3.20625,3.20625l2.1375,0.35625c1.06875,0.35625 1.06875,1.425 0,1.78125l-2.1375,0.35625c-1.425,0.35625 -2.85,1.425 -3.20625,3.20625l-0.35625,2.1375c-0.35625,1.06875 -1.425,1.06875 -1.78125,0l-0.35625,-2.1375c-0.35625,-1.425 -1.425,-2.85 -3.20625,-3.20625l-2.1375,-0.35625c-1.06875,-0.35625 -1.06875,-1.425 0,-1.78125l2.1375,-0.35625c1.425,-0.35625 2.85,-1.425 3.20625,-3.20625l0.35625,-2.1375c0.35625,-1.06875 1.78125,-1.06875 1.78125,0z" fill="#ff8a65"></path></g><path d="M0,171.98863v-171.98863h171.98863v171.98863z" fill="none" stroke="none" stroke-width="1" stroke-linejoin="miter"></path><g stroke="none" stroke-width="1" stroke-linejoin="miter"><path d="M10.6875,39.1875h149.625v103.3125h-149.625z" fill="#7e57c2"></path><path d="M85.5,114c-9.83757,0 -17.8125,7.97493 -17.8125,17.8125c0,9.83757 7.97493,17.8125 17.8125,17.8125c9.83757,0 17.8125,-7.97493 17.8125,-17.8125c0,-9.83757 -7.97493,-17.8125 -17.8125,-17.8125z" fill="#7e57c2"></path><path d="M85.5,121.125c-5.90254,0 -10.6875,4.78496 -10.6875,10.6875c0,5.90254 4.78496,10.6875 10.6875,10.6875c5.90254,0 10.6875,-4.78496 10.6875,-10.6875c0,-5.90254 -4.78496,-10.6875 -10.6875,-10.6875z" fill="#5e35b1"></path><path d="M142.5,28.5l-53.4375,10.6875h-7.125l-53.4375,-10.6875l-7.125,17.8125v85.5h128.25v-85.5z" fill="#d7ccc8"></path><path d="M28.5,121.125h53.4375v10.6875h7.125v-10.6875h53.4375l7.125,10.6875h-128.25z" fill="#bcaaa4"></path><path d="M142.5,28.5c0,0 -53.4375,0 -53.4375,10.6875c0,10.6875 0,92.625 0,92.625c0,-10.6875 53.4375,-10.6875 53.4375,-10.6875zM28.5,28.5c0,0 53.4375,0 53.4375,10.6875c0,10.6875 0,92.625 0,92.625c0,-10.6875 -53.4375,-10.6875 -53.4375,-10.6875z" fill="#efebe9"></path><path d="M61.9875,22.44375l0.7125,2.85c0.35625,2.49375 2.49375,4.275 4.63125,4.63125l2.85,0.7125c1.425,0.35625 1.425,2.49375 0,2.49375l-2.85,0.7125c-2.49375,0.35625 -4.275,2.49375 -4.63125,4.63125l-0.7125,2.85c-0.35625,1.425 -2.49375,1.425 -2.49375,0l-0.7125,-2.85c-0.35625,-2.49375 -2.49375,-4.275 -4.63125,-4.63125l-2.85,-0.7125c-1.425,-0.35625 -1.425,-2.49375 0,-2.49375l2.85,-0.7125c2.49375,-0.35625 4.275,-2.49375 4.63125,-4.63125l0.7125,-2.85c0,-1.425 2.1375,-1.425 2.49375,0z" fill="#ff8a65"></path><path d="M121.8375,64.8375l0.35625,2.1375c0.35625,1.425 1.425,2.85 3.20625,3.20625l2.1375,0.35625c1.06875,0.35625 1.06875,1.425 0,1.78125l-2.1375,0.35625c-1.425,0.35625 -2.85,1.425 -3.20625,3.20625l-0.35625,2.1375c-0.35625,1.06875 -1.425,1.06875 -1.78125,0l-0.35625,-2.1375c-0.35625,-1.425 -1.425,-2.85 -3.20625,-3.20625l-2.1375,-0.35625c-1.06875,-0.35625 -1.06875,-1.425 0,-1.78125l2.1375,-0.35625c1.425,-0.35625 2.85,-1.425 3.20625,-3.20625l0.35625,-2.1375c0.35625,-1.06875 1.78125,-1.06875 1.78125,0z" fill="#ff7043"></path><path d="M68.4,89.775l0.35625,2.1375c0.35625,1.425 1.425,2.85 3.20625,3.20625l2.1375,0.35625c1.06875,0.35625 1.06875,1.425 0,1.78125l-2.1375,0.35625c-1.425,0.35625 -2.85,1.425 -3.20625,3.20625l-0.35625,2.1375c-0.35625,1.06875 -1.425,1.06875 -1.78125,0l-0.35625,-2.1375c-0.35625,-1.425 -1.425,-2.85 -3.20625,-3.20625l-2.1375,-0.35625c-1.06875,-0.35625 -1.06875,-1.425 0,-1.78125l2.1375,-0.35625c1.425,-0.35625 2.85,-1.425 3.20625,-3.20625l0.35625,-2.1375c0.35625,-1.06875 1.78125,-1.06875 1.78125,0z" fill="#ff8a65"></path></g><path d="" fill="none" stroke="none" stroke-width="1" stroke-linejoin="miter"></path></g></g></svg>