    <svg xmlns="http://www.w3.org/2000/svg" x="0px" y="0px"
                width="25" height="25"
                viewBox="0 0 172 172"
                style=" fill:#000000;"><g fill="none" fill-rule="nonzero" stroke="none" stroke-width="1" stroke-linecap="butt" stroke-linejoin="miter" stroke-miterlimit="10" stroke-dasharray="" stroke-dashoffset="0" font-family="none" font-weight="none" font-size="none" text-anchor="none" style="mix-blend-mode: normal"><path d="M0,172v-172h172v172z" fill="none"></path><g fill="#ffffff"><path d="M161.25,35.44141c-5.62695,2.43555 -11.2959,4.24121 -17.55273,4.8291c6.25683,-3.61133 11.2959,-9.7002 13.77344,-16.33496c-6.25684,3.61132 -12.51368,6.04688 -19.4004,7.26465c-6.29882,-6.04687 -14.44531,-9.7002 -23.22168,-9.7002c-16.92285,0 -30.73828,13.35352 -30.73828,29.73047c0,2.39355 0,4.8291 0.62989,6.67676c-32.33399,0 -54.50586,-18.22461 -69.53906,-36.40723c-3.14942,4.24121 -4.40919,9.7002 -4.40919,15.15918c0,10.28809 5.66895,19.4004 13.81544,24.85938c-5.03906,-0.58789 -10.03614,-1.80566 -13.81544,-3.61132c0,0 0,0 0,0.58789c0,14.57129 10.66602,26.66504 24.48145,29.10059c-2.51953,0.58789 -5.03906,1.21777 -8.18848,1.21777c-1.84766,0 -3.7373,0 -5.62695,-0.5879c3.77929,12.13575 21.29004,26.07716 35.06348,26.07716c-10.66602,7.85253 -20.57618,14.69726 -40.39649,14.69726c-2.51953,0 -0.50391,0 -5.375,0c13.77344,8.48243 30.1084,10.75 47.03125,10.75c57.06739,0 87.80567,-45.47754 87.80567,-84.9082c0,-1.21778 0,-2.39356 0,-3.61133c6.25683,-4.2832 11.2959,-9.7002 15.66308,-15.78906"></path></g></g></svg>
            