<svg xmlns="http://www.w3.org/2000/svg" x="0px" y="0px"
width="48" height="48"
viewBox="0 0 171 171"
style=" fill:#000000;"><defs><radialGradient cx="181.2748" cy="122.86132" r="86.95485" gradientUnits="userSpaceOnUse" id="color-1_1FE2HGszFS4w_gr1"><stop offset="0" stop-color="#bd8af5"></stop><stop offset="0.137" stop-color="#b88bf5"></stop><stop offset="0.309" stop-color="#a88ff3"></stop><stop offset="0.499" stop-color="#8f96f2"></stop><stop offset="0.702" stop-color="#6b9eef"></stop><stop offset="0.913" stop-color="#3eaaec"></stop><stop offset="1" stop-color="#29afea"></stop></radialGradient><linearGradient x1="74.8125" y1="73.93256" x2="74.8125" y2="147.3165" gradientUnits="userSpaceOnUse" id="color-2_1FE2HGszFS4w_gr2"><stop offset="0" stop-color="#124787"></stop><stop offset="0.923" stop-color="#173b75"></stop><stop offset="1" stop-color="#173a73"></stop></linearGradient></defs><g transform="translate(25.79829,25.79829) scale(0.7,0.7)"><g fill="none" fill-rule="nonzero" stroke="none" stroke-width="1" stroke-linecap="butt" stroke-linejoin="miter" stroke-miterlimit="10" stroke-dasharray="" stroke-dashoffset="0" font-family="none" font-weight="none" font-size="none" text-anchor="none" style="mix-blend-mode: normal"><path d="M0,171.98863v-171.98863h171.98863v171.98863z" fill="none" stroke="none"></path><g stroke="none"><path d="M153.1875,146.0625h-135.375c-3.93656,0 -7.125,-3.18844 -7.125,-7.125v-103.3125c0,-3.93656 3.18844,-7.125 7.125,-7.125h135.375c3.93656,0 7.125,3.18844 7.125,7.125v103.3125c0,3.93656 -3.18844,7.125 -7.125,7.125z" fill="url(#color-1_1FE2HGszFS4w_gr1)"></path><path d="M70.23469,77.35969c-4.35694,-4.35694 -11.42137,-4.35694 -15.77831,0l-43.76887,43.76531v17.8125c0,3.93656 3.18844,7.125 7.125,7.125h121.125z" fill="url(#color-2_1FE2HGszFS4w_gr2)"></path><path d="M153.1875,146.0625c3.93656,0 7.125,-3.18844 7.125,-7.125v-3.5625l-43.76531,-43.76531c-4.35694,-4.35694 -11.42137,-4.35694 -15.77831,0l-54.45638,54.45281z" fill="#436dcd"></path><path d="M146.0625,57h-7.125c-1.9665,0 -3.5625,-1.596 -3.5625,-3.5625v-7.125c0,-1.9665 1.596,-3.5625 3.5625,-3.5625h7.125c1.9665,0 3.5625,1.596 3.5625,3.5625v7.125c0,1.9665 -1.596,3.5625 -3.5625,3.5625z" fill="#ffffff"></path><path d="M146.0625,81.9375h-7.125c-1.9665,0 -3.5625,-1.596 -3.5625,-3.5625v-7.125c0,-1.9665 1.596,-3.5625 3.5625,-3.5625h7.125c1.9665,0 3.5625,1.596 3.5625,3.5625v7.125c0,1.9665 -1.596,3.5625 -3.5625,3.5625z" fill="#ffffff"></path><path d="M146.0625,106.875h-7.125c-1.9665,0 -3.5625,-1.596 -3.5625,-3.5625v-7.125c0,-1.9665 1.596,-3.5625 3.5625,-3.5625h7.125c1.9665,0 3.5625,1.596 3.5625,3.5625v7.125c0,1.9665 -1.596,3.5625 -3.5625,3.5625z" fill="#ffffff"></path><path d="M146.0625,131.8125h-7.125c-1.9665,0 -3.5625,-1.596 -3.5625,-3.5625v-7.125c0,-1.9665 1.596,-3.5625 3.5625,-3.5625h7.125c1.9665,0 3.5625,1.596 3.5625,3.5625v7.125c0,1.9665 -1.596,3.5625 -3.5625,3.5625z" fill="#ffffff"></path><path d="M32.0625,57h-7.125c-1.9665,0 -3.5625,-1.596 -3.5625,-3.5625v-7.125c0,-1.9665 1.596,-3.5625 3.5625,-3.5625h7.125c1.9665,0 3.5625,1.596 3.5625,3.5625v7.125c0,1.9665 -1.596,3.5625 -3.5625,3.5625z" fill="#ffffff"></path><path d="M32.0625,81.9375h-7.125c-1.9665,0 -3.5625,-1.596 -3.5625,-3.5625v-7.125c0,-1.9665 1.596,-3.5625 3.5625,-3.5625h7.125c1.9665,0 3.5625,1.596 3.5625,3.5625v7.125c0,1.9665 -1.596,3.5625 -3.5625,3.5625z" fill="#ffffff"></path><path d="M32.0625,106.875h-7.125c-1.9665,0 -3.5625,-1.596 -3.5625,-3.5625v-7.125c0,-1.9665 1.596,-3.5625 3.5625,-3.5625h7.125c1.9665,0 3.5625,1.596 3.5625,3.5625v7.125c0,1.9665 -1.596,3.5625 -3.5625,3.5625z" fill="#ffffff"></path><path d="M32.0625,131.8125h-7.125c-1.9665,0 -3.5625,-1.596 -3.5625,-3.5625v-7.125c0,-1.9665 1.596,-3.5625 3.5625,-3.5625h7.125c1.9665,0 3.5625,1.596 3.5625,3.5625v7.125c0,1.9665 -1.596,3.5625 -3.5625,3.5625z" fill="#ffffff"></path></g></g></g></svg>