<svg xmlns="http://www.w3.org/2000/svg" x="0px" y="0px"
width="28" height="28"
viewBox="0 0 171 171"
style=" fill:#000000;"><g fill="none" fill-rule="nonzero" stroke="none" stroke-width="1" stroke-linecap="butt" stroke-linejoin="miter" stroke-miterlimit="10" stroke-dasharray="" stroke-dashoffset="0" font-family="none" font-weight="none" font-size="none" text-anchor="none" style="mix-blend-mode: normal"><path d="M0,171.98863v-171.98863h171.98863v171.98863z" fill="none"></path><g fill="#ffffff"><path d="M153.55266,49.59c-1.36266,-7.52133 -7.85531,-12.99867 -15.39,-14.70867c-11.27531,-2.39133 -32.14266,-4.10133 -54.72,-4.10133c-22.56399,0 -43.76531,1.71 -55.05399,4.10133c-7.52133,1.71 -14.02734,6.84 -15.39,14.70867c-1.37601,8.55 -2.73867,20.52 -2.73867,35.91c0,15.39 1.36266,27.36 3.07266,35.91c1.37601,7.52133 7.86867,12.99867 15.39,14.70867c11.97,2.39133 32.49,4.10133 55.06734,4.10133c22.57735,0 43.09735,-1.71 55.06735,-4.10133c7.52133,-1.71 14.01398,-6.84 15.39,-14.70867c1.36265,-8.55 3.07265,-20.86734 3.42,-35.91c-0.69469,-15.39 -2.40469,-27.36 -4.11469,-35.91zM64.98,109.44v-47.88l41.72133,23.94z"></path></g></g></svg>